<svg id="Layer_1" data-name="Layer 1" xmlns="http://www.w3.org/2000/svg" width={width} height={width} margin="0" padding ="0" viewBox="0 0 1000 1000"><path class="back" d="M293.21,944.1c-16,0-30.12-3.47-41.81-10.3-52.61-30.22-66.9-130-37.37-260.39l2-8.86-8.69-2.66C79.45,622.74,0,560.71,0,500c0-60.4,79.14-122.36,206.53-161.68l8.69-2.68-2-8.86c-29.73-130-15.67-229.52,36.7-259.71C261.79,60.22,276,56.74,292,56.74h6.89c53.1,3.15,123.29,42,194.06,107.74l6.68,6.2,6.67-6.22C577.21,98.19,647.46,59,700.45,55.9h6.73c15.85,0,29.79,3.49,41.42,10.3,52.61,30.22,66.9,130,37.37,260.38l-2,8.87,8.69,2.66C920.55,377.27,1000,439.3,1000,500S921,622.52,793.89,661.68l-8.69,2.68,2,8.87c29.73,130,15.67,229.52-36.7,259.71-11.91,6.85-26.07,10.33-42.08,10.33-53.83,0-127.08-39.35-201-107.95l-6.69-6.21-6.66,6.23C420.15,904.46,346.91,944.1,293.21,944.1ZM239.38,681.64c-5.09,23.33-8.6,43.63-10.76,62-10.17,84.47,3.55,148.45,35.82,167,7.67,4.35,17.13,6.66,28.14,6.91h.22c46.74,0,112.8-36.48,181.24-100.09l7.29-6.77-6.89-7.18A1003.28,1003.28,0,0,1,388.83,700.6l-2.56-3.51-4.32-.46a995.64,995.64,0,0,1-130.67-22.42l-9.76-2.39Zm509.71-7.84c-40.28,10.07-84.3,17.68-130.83,22.63l-4.36.46-2.56,3.56a972.14,972.14,0,0,1-85,102.66l-6.86,7.21,7.31,6.75c68.44,63.19,134.5,99.44,181.21,99.44,11.69,0,21.42-2.29,28.94-6.8C768.92,891,782.38,827,772,742.59a590.66,590.66,0,0,0-11-61.46l-2.22-9.75ZM434.94,717a869.91,869.91,0,0,0,58.44,67.26l7.07,7.31,7-7.34a825,825,0,0,0,57.84-67.31l13-16.93L557,701.16c-17.64,1-36.36,1.45-57.24,1.45-16.51,0-34.53-.46-56.71-1.45l-21.34-.95ZM500,324.36c-31,0-62.9,1.42-94.79,4.2l-4.56.4L398,332.71c-16.69,23.93-33.22,50.13-50.53,80.09-16.26,28.4-30.86,56.55-43.43,83.71l-1.92,4.15,1.94,4.13c13.62,29,28.3,57.05,43.62,83.47C363.88,616,381,642.83,398.45,667.92l2.64,3.78,4.6.38c32.57,2.64,64.3,4,94.31,4,31,0,62.9-1.41,94.79-4.2l4.56-.39,2.62-3.76c16.69-23.93,33.22-50.13,50.53-80.09,15.12-26.41,29.72-54.55,43.41-83.66l2-4.17-2-4.16c-13.62-29-28.3-57.05-43.62-83.46-16.17-27.78-33.24-54.58-50.74-79.67l-2.64-3.78-4.6-.38C561.74,325.7,530,324.36,500,324.36ZM279.52,553c-11.35,29-20.88,56.94-28.35,83l-2.81,9.8,9.9,2.42c26.57,6.49,55.54,12.07,86.1,16.59l21.37,3.16L354,649.73C344,634.13,334,617.88,324.31,601.45c-8.66-14.75-17.48-30.91-26.95-49.39l-9.92-19.35Zm422.91-1.73c-9.9,19.32-18.41,35.1-26.79,49.67-10.34,18.21-21.3,35.69-29.7,48.88l-11.49,18.06,21.18-3.11c29.51-4.33,58.62-10,86.52-16.8l10-2.43-2.87-9.83c-8.24-28.2-18-56.34-29-83.63l-8-19.9ZM212.09,364.52c-23.6,7.55-42.17,14.32-58.46,21.33C75.26,419.05,26.55,462.8,26.55,500c0,37,48.71,80.73,127.11,114.17,17.92,7.62,37.8,14.86,59.11,21.54l9.57,3,2.77-9.64a977.28,977.28,0,0,1,45.68-124.68l1.76-4-1.77-4a991,991,0,0,1-46.3-125.32l-2.81-9.66Zm562.59,6.42A976.85,976.85,0,0,1,729,495.63l-1.76,4,1.77,4a992.6,992.6,0,0,1,46.31,125.32l2.8,9.65,9.58-3.06c23.6-7.54,42.18-14.32,58.46-21.32C924.42,581,973.21,537.27,973.45,500.07c0-37-48.71-80.79-127.11-114.24C828,378.13,808.07,370.89,787,364.3l-9.57-3ZM344.16,335.27c-28.68,4.22-57.76,9.79-86.45,16.58l-10,2.38,2.89,9.9c8.24,28.2,18,56.34,29,83.63l8,19.89,9.78-19.09c9.1-17.76,17.86-33.93,26.79-49.46,10.34-18.2,21.3-35.68,29.7-48.88l11.49-18.06Zm301.61,15c8.39,13,19.34,30.25,29.66,48.21,8.72,14.83,17.53,31,27,49.46l9.92,19.36L720.27,447c11.35-29,20.89-56.93,28.35-83l2.81-9.79-9.9-2.42C715,345.38,686,339.8,655.43,335.28l-21.37-3.16ZM282.17,84.09A48.92,48.92,0,0,0,263,90.29c-31.95,18.7-45.41,82.76-35,167.13,2.64,20.45,6.33,41,11,61.27l2.23,9.73,9.69-2.42c40.28-10.07,84.29-17.69,130.83-22.63l4.36-.46,2.56-3.56a973.28,973.28,0,0,1,85-102.67l6.86-7.2-7.31-6.75C404.74,119.53,338.69,83.29,292,83.29h-9.8ZM707,82.46c-46.73.12-112.7,36.6-181,100.09l-7.29,6.77,6.89,7.18a1003.28,1003.28,0,0,1,85.61,102.91l2.56,3.5,4.31.46A996.85,996.85,0,0,1,748.72,325.8l9.76,2.39,2.14-9.82c5.09-23.34,8.61-43.64,10.76-62.05,10.17-84.46-3.55-148.45-35.82-166.95l-.17-.1a52.94,52.94,0,0,0-18.6-6v-.86ZM492.3,215.78a823.33,823.33,0,0,0-57.84,67.31l-13,16.92,21.32-1.17c17.64-1,36.36-1.44,57.24-1.44,16.52,0,34.54.46,56.72,1.45l21.33.94L564.85,283a868.25,868.25,0,0,0-58.44-67.27l-7.07-7.3Z"/><path class="front" d="M174.41,348.73H244.3V372H145.51V222.78h28.9Zm157.43,0h69.89V372H302.94V222.78h28.9Zm221.79,45.5H460.16V372h93.47ZM194.19,526.12H172.36v55.75h-28.8V432.66h50A80.23,80.23,0,0,1,216,435.58a49.72,49.72,0,0,1,17.16,8.56,37.65,37.65,0,0,1,11,14A46.4,46.4,0,0,1,248,477.65a50.47,50.47,0,0,1-1.9,14.4,39,39,0,0,1-13.93,20.34A56.74,56.74,0,0,1,221,519l32.07,61.59v1.33H222.27Zm-21.83-23.36h21.31q12.2,0,18.81-6.2t6.61-17q0-11.18-6.46-17.37T193.57,456H172.36Zm220.45,13.73H331.53v42.12h71.63v23.26H302.63V432.66H402.86v23.47H331.53v37.61h61.28Zm139,34.23H487l-8.81,31.15H447.87l48.88-149.21h26.13l48,149.21H540.51Zm-37.71-24.5H525L509.76,471.3Zm225.37,8.92a56.69,56.69,0,0,1-4.87,20.29,47.21,47.21,0,0,1-11.12,15.37,48.38,48.38,0,0,1-16.6,9.79A63.09,63.09,0,0,1,665.56,584a54.13,54.13,0,0,1-23.47-4.86,48.06,48.06,0,0,1-17.22-13.63,62.18,62.18,0,0,1-10.66-21.06,93.88,93.88,0,0,1-3.69-27.06V497.33a89.51,89.51,0,0,1,3.9-27.16,63,63,0,0,1,11.07-21.11,49.65,49.65,0,0,1,17.37-13.68,52.4,52.4,0,0,1,22.9-4.87A63.86,63.86,0,0,1,687.64,434a44.64,44.64,0,0,1,27,25.72,70,70,0,0,1,4.92,21H690.87a49.13,49.13,0,0,0-2-11.68,22.23,22.23,0,0,0-4.61-8.35,18.92,18.92,0,0,0-7.59-5A31.34,31.34,0,0,0,665.76,454,21.47,21.47,0,0,0,646,465.25a42.78,42.78,0,0,0-4.76,13.58,97.58,97.58,0,0,0-1.54,18.29v20.29q0,22,6.2,32.59t19.63,10.56q11.27,0,17.83-6t7.27-19.42Zm163.48-79h-46V581.87H808V456.13H762.63V432.66H882.94ZM331.84,768.49h69.89v23.26H302.94V642.54h28.9Zm200-7.89H487l-8.81,31.15H447.87l48.88-149.21h26.13l48,149.21H540.51Zm-37.71-24.5H525l-15.27-54.92Zm121.56,55.65V642.54h50.11A92.88,92.88,0,0,1,688,645,49.58,49.58,0,0,1,705,652.48a34,34,0,0,1,10.91,12.71,40,40,0,0,1,3.85,18.14,33.84,33.84,0,0,1-5.59,18.75q-5.48,8.31-16.14,12.61a33.82,33.82,0,0,1,11.17,4.92,31.16,31.16,0,0,1,7.84,7.73,31.82,31.82,0,0,1,4.61,9.74A40.12,40.12,0,0,1,723.15,748a45.75,45.75,0,0,1-3.69,19,36.68,36.68,0,0,1-10.56,13.73,46,46,0,0,1-16.7,8.3,81.58,81.58,0,0,1-22.14,2.77Zm28.9-86.59H666q12-.1,18.44-5T691,685.68q0-10.44-6.46-15T665.86,666H644.55Zm0,20.8v42.53h25.62q11.77-.11,18-5.79t6.2-14.91q.1-10.24-5.53-16T671.4,726Z"/></svg>
